<?xml version="1.0" standalone="no"?>
<!DOCTYPE svg PUBLIC "-//W3C//DTD SVG 20010904//EN"
 "http://www.w3.org/TR/2001/REC-SVG-20010904/DTD/svg10.dtd">
<svg version="1.0" xmlns="http://www.w3.org/2000/svg"
 width="260.000000pt" height="260.000000pt" viewBox="0 0 260.000000 260.000000"
 preserveAspectRatio="xMidYMid meet">
<metadata>
Created by potrace 1.11, written by Peter Selinger 2001-2013
</metadata>
<g transform="translate(0.000000,260.000000) scale(0.100000,-0.100000)"
fill="#000000" stroke="none">
<path d="M1340 2435 c-8 -60 2 -124 30 -180 30 -62 88 -140 98 -131 2 3 0 11
-6 18 -43 53 -100 186 -112 263 -4 28 -9 41 -10 30z"/>
<path d="M1311 2208 c-1 -20 6 -72 14 -115 34 -172 29 -235 -19 -247 -80 -20
-123 64 -103 203 l6 43 -25 -28 c-47 -54 -81 -109 -109 -179 -24 -58 -29 -85
-29 -158 l-1 -88 -31 34 -32 34 -17 -36 c-17 -35 -31 -191 -17 -191 4 0 18 15
31 33 40 53 121 116 196 152 74 36 157 55 153 35 -2 -6 23 -20 55 -30 67 -21
149 -73 218 -137 l48 -45 10 40 c25 91 16 195 -23 284 -22 51 -31 53 -46 8 -7
-21 -25 -52 -41 -69 -31 -34 -55 -42 -44 -13 16 39 22 70 24 127 2 50 -3 70
-28 120 -17 33 -49 80 -72 105 -59 65 -105 123 -112 140 -3 8 -6 -1 -6 -22z"/>
<path d="M1068 2020 c-53 -44 -88 -152 -67 -205 7 -19 8 -19 8 3 1 38 39 135
72 181 16 24 29 45 27 47 -2 2 -20 -10 -40 -26z"/>
<path d="M795 1930 c-3 -5 -2 -10 3 -10 15 0 34 -55 30 -85 -4 -36 -37 -60
-123 -89 -62 -21 -197 -52 -258 -60 -12 -2 -42 -6 -67 -10 -71 -11 -118 -14
-215 -16 -59 -1 -83 -4 -70 -10 34 -14 105 -81 132 -124 23 -36 27 -38 33 -21
4 11 5 25 2 30 -3 7 -2 7 5 0 16 -16 35 -105 34 -167 l0 -58 37 38 c47 47 88
75 131 90 43 15 49 10 18 -15 -51 -40 -97 -147 -97 -225 l0 -21 23 21 c66 62
188 50 270 -26 l27 -26 1 25 c2 60 26 159 39 159 4 0 8 -21 8 -46 3 -57 20
-134 34 -151 6 -7 20 -13 33 -13 22 0 22 -1 8 -52 -8 -29 -16 -93 -18 -142 -8
-150 31 -278 116 -386 32 -40 36 -50 22 -51 -100 -4 -236 -43 -255 -73 -27
-42 138 -88 370 -101 84 -5 86 -5 49 9 -46 17 -62 31 -27 23 14 -3 72 -9 130
-13 337 -23 676 15 688 78 4 22 -76 51 -185 68 -46 7 -83 14 -83 16 0 1 14 18
31 36 40 44 96 159 112 233 19 86 14 232 -13 323 -8 30 -7 32 15 32 40 0 62
62 65 180 l2 45 19 -43 c11 -23 21 -67 22 -97 1 -30 5 -55 8 -55 3 0 14 9 25
21 65 72 198 88 266 31 l31 -26 -7 49 c-12 77 -42 147 -82 188 -20 20 -30 37
-23 37 37 0 179 -104 179 -131 0 -5 5 -9 10 -9 6 0 10 13 10 28 0 39 32 130
63 178 29 46 79 94 126 122 l34 21 -74 0 c-91 0 -176 8 -294 27 -49 8 -103 17
-120 20 -16 3 -74 19 -128 36 -74 24 -104 39 -123 61 -27 32 -26 48 7 105 16
28 16 32 3 32 -26 0 -83 -31 -103 -56 -18 -23 -18 -25 4 -87 47 -128 56 -302
21 -412 -29 -95 -33 -95 -105 1 -100 135 -235 228 -324 223 -93 -5 -255 -129
-337 -257 -39 -60 -46 -58 -75 23 -38 108 -26 322 26 442 l18 42 -28 30 c-39
42 -93 62 -106 41z m562 -392 c44 -16 42 -24 -8 -25 -91 -2 -235 -108 -325
-239 -50 -72 -68 -56 -24 21 43 75 173 207 230 233 52 25 81 27 127 10z m-428
-435 c0 -5 -9 -26 -20 -48 -18 -38 -18 -36 -3 28 5 23 25 40 23 20z"/>
<path d="M2030 1198 c-43 -12 -149 -88 -122 -88 5 0 14 6 20 13 6 7 39 26 74
42 73 34 73 34 67 38 -2 2 -20 0 -39 -5z"/>
<path d="M774 1008 c-17 -27 -31 -118 -28 -185 4 -79 35 -164 74 -198 l23 -20
-15 30 c-35 68 -50 134 -54 226 -2 53 1 111 6 128 9 32 7 40 -6 19z"/>
</g>
</svg>
