<?xml version="1.0" standalone="no"?>
<!DOCTYPE svg PUBLIC "-//W3C//DTD SVG 20010904//EN"
 "http://www.w3.org/TR/2001/REC-SVG-20010904/DTD/svg10.dtd">
<svg version="1.0" xmlns="http://www.w3.org/2000/svg"
 width="161.000000pt" height="161.000000pt" viewBox="0 0 161.000000 161.000000"
 preserveAspectRatio="xMidYMid meet">
<metadata>
Created by potrace 1.11, written by Peter Selinger 2001-2013
</metadata>
<g transform="translate(0.000000,161.000000) scale(0.100000,-0.100000)"
fill="#000000" stroke="none">
<path d="M738 1536 c-227 -81 -455 -399 -505 -706 -4 -25 -7 -97 -7 -160 2
-183 50 -306 163 -415 116 -113 253 -169 411 -170 116 0 152 7 241 45 186 79
303 218 343 405 20 94 14 274 -13 377 -60 229 -209 451 -380 568 -97 65 -177
83 -253 56z m167 -90 l60 -33 32 -149 c17 -82 34 -164 37 -181 3 -19 41 -80
86 -142 l81 -110 -11 -63 c-19 -106 -19 -111 -13 -104 4 4 8 12 9 19 1 7 11
48 23 91 l22 79 -58 111 c-56 109 -57 113 -58 199 -1 48 1 87 4 87 9 0 76
-108 114 -185 83 -165 106 -415 54 -563 -58 -166 -166 -271 -330 -322 -21 -7
-41 -10 -43 -7 -5 5 16 57 69 178 l25 56 -76 74 -76 74 32 -58 33 -58 -103
-134 c-97 -126 -105 -134 -131 -129 -65 13 -128 63 -178 139 -21 33 -42 74
-45 92 -10 53 -26 38 -20 -19 2 -29 8 -62 11 -73 4 -13 -4 -9 -25 15 -40 44
-87 135 -104 203 l-13 52 90 134 c89 133 101 158 112 237 3 23 8 57 10 75 3
19 7 43 9 54 3 11 5 26 5 32 1 7 35 38 76 68 41 31 75 58 75 60 0 2 -42 -21
-94 -51 l-93 -55 -37 -117 c-32 -104 -42 -123 -84 -167 -83 -87 -82 -87 -61 6
48 204 142 370 288 507 64 60 159 112 205 112 17 0 58 -15 91 -34z"/>
<path d="M1272 681 c-8 -134 -92 -297 -206 -404 -30 -27 -34 -35 -16 -26 42
20 146 131 173 184 13 28 32 75 41 105 20 67 32 180 19 180 -5 0 -10 -18 -11
-39z"/>
</g>
</svg>
