<?xml version="1.0" standalone="no"?>
<!DOCTYPE svg PUBLIC "-//W3C//DTD SVG 20010904//EN"
 "http://www.w3.org/TR/2001/REC-SVG-20010904/DTD/svg10.dtd">
<svg version="1.0" xmlns="http://www.w3.org/2000/svg"
 width="161.000000pt" height="161.000000pt" viewBox="0 0 161.000000 161.000000"
 preserveAspectRatio="xMidYMid meet">
<metadata>
Created by potrace 1.11, written by Peter Selinger 2001-2013
</metadata>
<g transform="translate(0.000000,161.000000) scale(0.100000,-0.100000)"
fill="#000000" stroke="none">
<path d="M738 1537 c-72 -28 -135 -72 -218 -156 -103 -103 -149 -171 -211
-311 -63 -141 -83 -235 -84 -385 0 -106 3 -130 29 -208 37 -115 87 -190 176
-266 64 -55 91 -72 165 -102 24 -9 215 -39 253 -39 35 0 161 39 192 60 14 10
39 20 55 24 49 12 128 70 172 128 230 297 149 800 -179 1113 -134 129 -254
177 -350 142z m164 -90 l63 -33 40 -185 40 -185 78 -107 78 -106 -10 -57 c-18
-98 -11 -103 15 -11 l24 88 -56 111 c-53 106 -56 116 -61 205 -3 51 -3 93 -1
93 6 0 71 -101 110 -170 36 -64 75 -193 89 -295 27 -208 -32 -391 -165 -512
-51 -46 -142 -94 -204 -108 -41 -8 -41 -10 23 133 l43 97 -71 72 c-39 40 -73
71 -75 69 -2 -2 11 -27 28 -55 l31 -50 -98 -127 c-54 -70 -101 -132 -105 -138
-10 -15 -76 8 -125 44 -50 37 -120 137 -129 186 -3 19 -11 34 -16 34 -11 0 -5
-86 8 -127 3 -10 -8 -3 -26 17 -38 43 -82 127 -104 198 l-15 53 94 142 95 142
19 127 c11 71 23 132 26 138 3 5 35 30 70 56 72 51 86 68 28 34 -21 -12 -61
-35 -89 -51 l-50 -29 -37 -117 c-35 -112 -40 -121 -98 -182 l-62 -65 7 49 c38
250 234 544 421 631 66 31 91 30 167 -9z"/>
<path d="M1267 645 c-26 -142 -99 -274 -206 -373 -29 -26 -31 -30 -11 -21 42
20 146 131 173 184 13 28 32 73 40 102 16 53 34 193 25 193 -3 0 -12 -38 -21
-85z"/>
</g>
</svg>
