<?xml version="1.0" standalone="no"?>
<!DOCTYPE svg PUBLIC "-//W3C//DTD SVG 20010904//EN"
 "http://www.w3.org/TR/2001/REC-SVG-20010904/DTD/svg10.dtd">
<svg version="1.0" xmlns="http://www.w3.org/2000/svg"
 width="260.000000pt" height="260.000000pt" viewBox="0 0 260.000000 260.000000"
 preserveAspectRatio="xMidYMid meet">
<metadata>
Created by potrace 1.11, written by Peter Selinger 2001-2013
</metadata>
<g transform="translate(0.000000,260.000000) scale(0.100000,-0.100000)"
fill="#000000" stroke="none">
<path d="M1349 2533 c-2 -60 -2 -50 5 -100 8 -59 49 -142 103 -209 51 -62 67
-66 30 -7 -73 116 -124 252 -122 326 1 20 -2 37 -7 37 -4 0 -9 -21 -9 -47z"/>
<path d="M1315 2263 c3 -27 7 -59 10 -73 3 -14 8 -38 10 -55 3 -16 8 -37 10
-45 18 -66 21 -172 6 -208 -24 -57 -99 -51 -145 11 -18 24 -21 43 -21 115 0
48 4 98 8 112 14 43 -79 -67 -117 -140 -64 -120 -94 -262 -75 -347 4 -18 4
-33 0 -33 -12 0 -61 55 -61 68 0 30 -21 7 -40 -45 -22 -57 -32 -194 -16 -210
3 -4 14 4 23 18 59 85 210 195 314 228 40 13 139 30 139 25 0 -2 -15 -10 -32
-18 l-33 -14 37 -1 c84 -2 241 -88 340 -187 l48 -47 9 25 c41 109 25 282 -37
388 l-26 45 -6 -30 c-11 -52 -50 -115 -82 -135 -18 -11 -33 -18 -35 -16 -2 2
4 20 13 42 10 22 18 73 20 117 5 121 -28 190 -155 327 -33 36 -68 80 -78 98
-25 45 -35 40 -28 -15z m174 -228 c34 -61 49 -106 54 -165 4 -43 -16 -147 -31
-162 -4 -4 -7 46 -8 110 0 105 -3 124 -28 187 -16 39 -36 81 -46 95 -31 47
-32 55 0 20 17 -19 43 -57 59 -85z"/>
<path d="M1040 2065 c-55 -35 -92 -113 -98 -204 -2 -42 -2 -73 2 -70 4 3 16
39 27 79 23 83 47 134 85 179 14 18 25 33 23 35 -2 2 -20 -6 -39 -19z"/>
<path d="M1227 1546 c-68 -25 -147 -80 -212 -146 -112 -115 -150 -170 -214
-317 -43 -95 -54 -129 -77 -233 -3 -14 -7 -70 -9 -126 -4 -113 11 -200 49
-294 26 -64 106 -183 132 -198 10 -6 -19 -14 -91 -26 -150 -24 -235 -57 -235
-91 0 -47 202 -94 465 -109 l90 -5 -52 17 c-64 21 -79 34 -32 28 19 -3 54 -8
79 -11 78 -11 512 -14 585 -4 39 4 88 11 110 14 96 12 215 54 215 75 0 22
-102 68 -169 75 -9 1 -32 5 -51 9 -30 6 -78 13 -103 15 -4 1 13 27 39 59 146
177 182 436 98 702 -109 348 -425 638 -617 566z m181 -96 l49 -30 36 -180 37
-180 81 -110 80 -109 -11 -63 c-6 -35 -13 -74 -16 -88 -3 -14 -3 -22 1 -19 3
4 17 48 30 99 l25 92 -56 112 c-55 107 -57 114 -60 199 -1 48 1 87 4 87 16 -1
112 -168 140 -242 103 -278 69 -539 -92 -703 -61 -62 -152 -115 -224 -130 -41
-8 -41 -13 22 130 l44 100 -71 72 c-39 40 -73 71 -75 69 -1 -2 11 -27 28 -55
l30 -52 -102 -134 c-57 -74 -110 -134 -118 -134 -32 -1 -100 39 -144 84 -46
48 -96 134 -96 167 0 10 -4 18 -10 18 -10 0 -7 -79 4 -120 6 -23 4 -22 -24 10
-39 43 -82 127 -104 198 l-15 53 94 142 94 142 16 100 c27 179 22 167 75 203
52 36 102 77 85 71 -5 -2 -46 -26 -91 -52 l-80 -48 -37 -117 c-35 -111 -40
-120 -98 -181 l-61 -64 6 45 c7 51 31 138 51 183 7 17 23 52 34 78 58 135 213
311 324 367 75 38 121 36 195 -10z"/>
<path d="M1764 722 c2 -4 -2 -41 -10 -82 -24 -131 -116 -287 -213 -363 -19
-15 -29 -27 -24 -27 18 0 108 75 145 122 44 53 71 107 92 178 21 73 30 180 16
180 -6 0 -9 -4 -6 -8z"/>
</g>
</svg>
