<svg width="64" height="64" xmlns="http://www.w3.org/2000/svg">

 <g>
  <title>background</title>
  <rect fill="none" id="canvas_background" height="402" width="582" y="-1" x="-1"/>
 </g>
 <g>
  <title>Layer 1</title>
  <g id="svg_26">
   <g id="svg_1"/>
   <path fill="#ffffff" id="svg_2" d="m61,11l-3,0l0,-3c0,-1.654 -1.346,-3 -3,-3l-10,0c-1.654,0 -3,1.346 -3,3l0,3l-2,0l0,-3c0,-1.654 -1.346,-3 -3,-3l-10,0c-1.654,0 -3,1.346 -3,3l0,3l-2,0l0,-3c0,-1.654 -1.346,-3 -3,-3l-10,0c-1.654,0 -3,1.346 -3,3l0,3l-3,0c-0.552,0 -1,0.447 -1,1l0,4c0,0.553 0.448,1 1,1l3,0l0,3c0,1.654 1.346,3 3,3l10,0c1.654,0 3,-1.346 3,-3l0,-3l2,0l0,3c0,1.654 1.346,3 3,3l2,0l0,6l-5,0c-1.654,0 -3,1.346 -3,3l0,15c0,1.654 1.346,3 3,3l16,0c1.654,0 3,-1.346 3,-3l0,-15c0,-1.654 -1.346,-3 -3,-3l-5,0l0,-6l2,0c1.654,0 3,-1.346 3,-3l0,-3l2,0l0,3c0,1.654 1.346,3 3,3l10,0c1.654,0 3,-1.346 3,-3l0,-3l3,0c0.552,0 1,-0.447 1,-1l0,-4c0,-0.553 -0.448,-1 -1,-1zm-17,-3c0,-0.552 0.449,-1 1,-1l10,0c0.551,0 1,0.448 1,1l0,3l-2,0l0,-1c0,-0.553 -0.448,-1 -1,-1l-6,0c-0.552,0 -1,0.447 -1,1l0,1l-2,0l0,-3zm8,9l-4,0c0.552,0 1,-0.447 1,-1l0,-4c0,-0.553 -0.448,-1 -1,-1l4,0c-0.552,0 -1,0.447 -1,1l0,4c0,0.553 0.448,1 1,1zm-13,-2l-4,0l0,-2l4,0l4,0l4,0l0,2l-4,0l-4,0zm-18,0l-4,0l0,-2l4,0l4,0l4,0l0,2l-4,0l-4,0zm-9,-4l4,0c-0.552,0 -1,0.447 -1,1l0,4c0,0.553 0.448,1 1,1l-4,0c0.552,0 1,-0.447 1,-1l0,-4c0,-0.553 -0.448,-1 -1,-1zm18,0l4,0c-0.552,0 -1,0.447 -1,1l0,4c0,0.553 0.448,1 1,1l-4,0c0.552,0 1,-0.447 1,-1l0,-4c0,-0.553 -0.448,-1 -1,-1zm-4,-3c0,-0.552 0.449,-1 1,-1l10,0c0.551,0 1,0.448 1,1l0,3l-2,0l0,-1c0,-0.553 -0.448,-1 -1,-1l-6,0c-0.552,0 -1,0.447 -1,1l0,1l-2,0l0,-3zm-18,0c0,-0.552 0.449,-1 1,-1l10,0c0.551,0 1,0.448 1,1l0,3l-2,0l0,-1c0,-0.553 -0.448,-1 -1,-1l-6,0c-0.552,0 -1,0.447 -1,1l0,1l-2,0l0,-3zm-4,5l3,0l4,0l0,2l-4,0l-3,0l0,-2zm16,7c0,0.552 -0.449,1 -1,1l-10,0c-0.551,0 -1,-0.448 -1,-1l0,-3l2,0l0,1c0,0.553 0.448,1 1,1l6,0c0.552,0 1,-0.447 1,-1l0,-1l2,0l0,3zm21,12l0,15c0,0.552 -0.449,1 -1,1l-16,0c-0.551,0 -1,-0.448 -1,-1l0,-15c0,-0.552 0.449,-1 1,-1l6,0l4,0l6,0c0.551,0 1,0.448 1,1zm-8,-3l-2,0l0,-6l2,0l0,6zm5,-9c0,0.552 -0.449,1 -1,1l-3,0l-4,0l-3,0c-0.551,0 -1,-0.448 -1,-1l0,-3l2,0l0,1c0,0.553 0.448,1 1,1l6,0c0.552,0 1,-0.447 1,-1l0,-1l2,0l0,3zm18,0c0,0.552 -0.449,1 -1,1l-10,0c-0.551,0 -1,-0.448 -1,-1l0,-3l2,0l0,1c0,0.553 0.448,1 1,1l6,0c0.552,0 1,-0.447 1,-1l0,-1l2,0l0,3zm4,-5l-3,0l-4,0l0,-2l4,0l3,0l0,2z"/>
   <path fill="#ffffff" id="svg_3" d="m28,37c0,0.966 0.36,1.901 1,2.63l0,5.37c0,0.553 0.448,1 1,1l4,0c0.552,0 1,-0.447 1,-1l0,-5.37c0.64,-0.729 1,-1.664 1,-2.63c0,-2.206 -1.794,-4 -4,-4s-4,1.794 -4,4zm6,0c0,0.564 -0.238,1.09 -0.67,1.479c-0.21,0.19 -0.33,0.459 -0.33,0.743l0,4.778l-2,0l0,-4.778c0,-0.283 -0.12,-0.553 -0.33,-0.742c-0.432,-0.39 -0.67,-0.916 -0.67,-1.48c0,-1.103 0.897,-2 2,-2s2,0.897 2,2z"/>
   <path fill="#ffffff" id="svg_4" d="m16.352,49.781l-1.646,1.137c0.406,0.588 0.845,1.159 1.304,1.697l1.521,-1.297c-0.414,-0.487 -0.811,-1.005 -1.179,-1.537z"/>
   <path fill="#ffffff" id="svg_5" d="m13.359,42.693l-1.963,0.385c0.137,0.698 0.313,1.397 0.521,2.078l1.912,-0.586c-0.188,-0.615 -0.346,-1.247 -0.47,-1.877z"/>
   <path fill="#ffffff" id="svg_6" d="m17.48,54.172c0.512,0.49 1.057,0.961 1.619,1.399l1.23,-1.576c-0.509,-0.397 -1.002,-0.824 -1.466,-1.269l-1.383,1.446z"/>
   <path fill="#ffffff" id="svg_7" d="m13,39l0,-0.162l-2,-0.018l0,0.179c0,0.651 0.03,1.311 0.09,1.961l1.991,-0.186c-0.054,-0.587 -0.081,-1.184 -0.081,-1.774z"/>
   <path fill="#ffffff" id="svg_8" d="m43.714,53.961l1.234,1.574c0.562,-0.441 1.105,-0.914 1.615,-1.404l-1.388,-1.441c-0.461,0.445 -0.952,0.873 -1.461,1.271z"/>
   <path fill="#ffffff" id="svg_9" d="m12.025,32.5l1.902,0.619c0.2,-0.614 0.433,-1.223 0.692,-1.809l-1.827,-0.81c-0.288,0.647 -0.545,1.321 -0.767,2z"/>
   <path fill="#ffffff" id="svg_10" d="m14.491,46.391l-1.842,0.779c0.277,0.655 0.591,1.304 0.933,1.926l1.753,-0.963c-0.31,-0.564 -0.593,-1.15 -0.844,-1.742z"/>
   <path fill="#ffffff" id="svg_11" d="m11.126,36.685l1.988,0.217c0.07,-0.639 0.174,-1.282 0.309,-1.912l-1.955,-0.42c-0.149,0.696 -0.264,1.408 -0.342,2.115z"/>
   <path fill="#ffffff" id="svg_12" d="m16.542,27.951l-1.626,-1.166c-0.413,0.577 -0.802,1.184 -1.157,1.804l1.736,0.992c0.321,-0.56 0.673,-1.109 1.047,-1.63z"/>
   <path fill="#ffffff" id="svg_13" d="m52.867,36.626c-0.08,-0.709 -0.197,-1.42 -0.348,-2.113l-1.954,0.426c0.137,0.627 0.242,1.27 0.314,1.91l1.988,-0.223z"/>
   <path fill="#ffffff" id="svg_14" d="m40.443,56.026l0.888,1.791c0.636,-0.314 1.264,-0.668 1.868,-1.049l-1.068,-1.691c-0.547,0.346 -1.114,0.664 -1.688,0.949z"/>
   <path fill="#ffffff" id="svg_15" d="m24.688,58.69c0.664,0.248 1.352,0.464 2.045,0.644l0.499,-1.938c-0.626,-0.161 -1.247,-0.356 -1.845,-0.579l-0.699,1.873z"/>
   <path fill="#ffffff" id="svg_16" d="m28.832,59.763c0.706,0.106 1.422,0.178 2.13,0.212l0.097,-1.998c-0.641,-0.031 -1.289,-0.096 -1.928,-0.192l-0.299,1.978z"/>
   <path fill="#ffffff" id="svg_17" d="m50.999,38.785l0.001,0.215c0,0.574 -0.026,1.152 -0.077,1.719l1.992,0.18c0.056,-0.627 0.085,-1.265 0.085,-1.899l-0.001,-0.24l-2,0.025z"/>
   <path fill="#ffffff" id="svg_18" d="m36.82,57.383l0.505,1.936c0.688,-0.18 1.375,-0.397 2.042,-0.647l-0.702,-1.873c-0.602,0.224 -1.223,0.422 -1.845,0.584z"/>
   <path fill="#ffffff" id="svg_19" d="m32.997,57.975l0.103,1.998c0.708,-0.036 1.424,-0.11 2.13,-0.219l-0.305,-1.977c-0.639,0.099 -1.287,0.165 -1.928,0.198z"/>
   <path fill="#ffffff" id="svg_20" d="m50.187,44.517l1.914,0.58c0.206,-0.681 0.379,-1.38 0.515,-2.078l-1.963,-0.381c-0.123,0.631 -0.28,1.263 -0.466,1.879z"/>
   <path fill="#ffffff" id="svg_21" d="m46.502,51.276l1.525,1.293c0.459,-0.542 0.897,-1.114 1.3,-1.702l-1.649,-1.131c-0.365,0.532 -0.761,1.05 -1.176,1.54z"/>
   <path fill="#ffffff" id="svg_22" d="m47.429,27.909c0.377,0.524 0.73,1.072 1.051,1.628l1.733,-0.996c-0.354,-0.615 -0.744,-1.221 -1.161,-1.8l-1.623,1.168z"/>
   <path fill="#ffffff" id="svg_23" d="m49.359,31.264c0.262,0.588 0.497,1.196 0.698,1.808l1.9,-0.625c-0.222,-0.675 -0.482,-1.348 -0.772,-1.997l-1.826,0.814z"/>
   <path fill="#ffffff" id="svg_24" d="m20.853,56.8c0.603,0.378 1.231,0.729 1.87,1.044l0.885,-1.793c-0.578,-0.285 -1.146,-0.603 -1.691,-0.944l-1.064,1.693z"/>
   <path fill="#ffffff" id="svg_25" d="m48.691,48.085l1.756,0.957c0.341,-0.626 0.653,-1.275 0.928,-1.93l-1.845,-0.773c-0.247,0.592 -0.53,1.18 -0.839,1.746z"/>
  </g>
 </g>
</svg>