<svg width="128" height="128" xmlns="http://www.w3.org/2000/svg">

 <g>
  <title>background</title>
  <rect fill="none" id="canvas_background" height="402" width="582" y="-1" x="-1"/>
 </g>
 <g>
  <title>Layer 1</title>
  <path fill="#ffffff" id="svg_1" d="m85.54689,43.847698l-5.192405,-6.687999c-1.269486,-1.6353 -3.908196,-2.974598 -6.049797,-3.129399c-0.102601,-0.007801 -0.197304,-0.0303 -0.304688,-0.0303l-0.09861,0l-19.90139,0l-0.731411,0c-2.200203,0 -5.036201,1.472198 -6.302803,3.271l-4.663097,6.625999c-1.266602,1.798802 -1.202103,4.695302 0.1436,6.435501l18.941399,24.502903c0.674801,0.872094 1.564399,1.308198 2.4561,1.308198c0.886696,0 1.775299,-0.432198 2.450096,-1.297898l19.246117,-24.684105c1.353584,-1.734798 1.356483,-4.576198 0.006889,-6.3139zm-4.169006,1.152302l-6.817398,0l1.888702,-6.039101c0.309601,0.209999 0.576203,0.433102 0.746102,0.651902l4.182594,5.387199zm-17.116196,-3.787602l2.425797,3.787602l-5.050797,0l2.625,-3.787602zm4.857399,7.787602l-4.942299,15.806602l-5.117202,-15.806602l10.059501,0zm-14.263599,0l6.041,18.659699l-14.424801,-18.659699l7.528313,0l0.855488,0zm18.454998,0l0.689514,0l7.374,0l-13.461913,17.265099l5.398399,-17.265099zm-0.7519,-11l-1.838898,5.879902l-3.765602,-5.879902l5.6045,0zm-10.938499,0l-4.171898,6.021999l-1.949188,-6.021999l6.121086,0zm-11.383801,1.5737c0.2393,-0.340302 0.716801,-0.699699 1.247101,-0.9907l2.077099,6.417l-7.142487,0l3.818287,-5.4263z"/>
  <path fill="#ffffff" id="svg_2" d="m23.307589,81.055702l-6.443301,-0.940506l-2.880899,-5.865196c-0.409201,-0.833 -0.946301,-1.249497 -1.482389,-1.249497c-0.536212,0 -1.073311,0.416497 -1.481512,1.249497l-2.881799,5.865196l-6.4434,0.940506c-1.831,0.266602 -2.2422,1.535095 -0.916,2.831001l4.6631,4.5654l-1.1006,6.446296c-0.2275,1.3247 0.2715,2.101601 1.186499,2.101601c0.348712,0 0.757901,-0.112801 1.21,-0.351601l5.763712,-3.0429l5.762689,3.0429c0.452099,0.2388 0.860312,0.351601 1.209,0.351601c0.914999,0 1.414999,-0.776901 1.1884,-2.101601l-1.100601,-6.446296l4.662201,-4.5654c1.325199,-1.295906 0.916,-2.564399 -0.9151,-2.831001zm-8.043001,6.004395l0.653412,3.826606l-3.417,-1.804702l-3.417,1.804199l0.653288,-3.826103l-2.787099,-2.728997l3.848599,-0.562103l1.702212,-3.463798l1.701088,3.463798l3.8497,0.562103l-2.7872,2.728997z"/>
  <path fill="#ffffff" id="svg_3" d="m46.307587,63.054699l-6.443299,-0.940399l-2.880901,-5.8653c-0.409199,-0.833 -0.9463,-1.2495 -1.482387,-1.2495c-0.536213,0 -1.073311,0.4165 -1.481511,1.2495l-2.881801,5.8653l-6.4434,0.940399c-1.830999,0.266601 -2.242201,1.535099 -0.916,2.832004l4.663099,4.564499l-1.100599,6.446297c-0.227499,1.3256 0.2715,2.102501 1.1865,2.102501c0.348711,0 0.757901,-0.112801 1.21,-0.351601l5.763711,-3.043899l5.762688,3.043899c0.452099,0.2388 0.860314,0.351601 1.209,0.351601c0.915001,0 1.415001,-0.776901 1.1884,-2.102501l-1.100601,-6.446297l4.662201,-4.564499c1.325199,-1.296905 0.916,-2.565403 -0.9151,-2.832004zm-8.043,6.004398l0.653412,3.826599l-3.416999,-1.804595l-3.417,1.804595l0.65329,-3.827095l-2.788102,-2.7285l3.849598,-0.562004l1.702214,-3.463898l1.701088,3.463898l3.8497,0.562004l-2.787201,2.728996z"/>
  <path fill="#ffffff" id="svg_4" d="m126.305687,81.055702l-6.443397,-0.940506l-2.881806,-5.865196c-0.408196,-0.833 -0.945297,-1.249497 -1.481483,-1.249497c-0.536118,0 -1.073212,0.416497 -1.482415,1.249497l-2.880897,5.865196l-6.443306,0.940506c-1.831093,0.266602 -2.240296,1.535095 -0.9151,2.831001l4.662201,4.5654l-1.100602,6.446296c-0.226593,1.3247 0.273407,2.101601 1.188401,2.101601c0.348716,0 0.756904,-0.112801 1.208999,-0.351601l5.762718,-3.0429l5.763688,3.0429c0.452095,0.2388 0.861312,0.351601 1.209999,0.351601c0.915001,0 1.414001,-0.776901 1.1865,-2.101601l-1.100601,-6.446296l4.663101,-4.5654c1.326195,-1.295906 0.915001,-2.564399 -0.916,-2.831001zm-8.042999,6.004395l0.653312,3.826103l-3.416999,-1.804199l-3.417,1.804703l0.653389,-3.826607l-2.787201,-2.728997l3.849701,-0.562103l1.701111,-3.463798l1.702186,3.463798l3.848603,0.562103l-2.787102,2.728997z"/>
  <path fill="#ffffff" id="svg_5" d="m99.558586,70.451202l4.663101,-4.564499c1.326203,-1.296905 0.915001,-2.565403 -0.916,-2.832004l-6.443398,-0.940399l-2.881805,-5.865299c-0.408196,-0.833001 -0.945297,-1.249501 -1.481484,-1.249501c-0.536117,0 -1.073211,0.4165 -1.482414,1.249501l-2.880897,5.865299l-6.443298,0.940399c-1.831101,0.266602 -2.240303,1.535099 -0.915101,2.832004l4.662194,4.564499l-1.100594,6.446297c-0.226601,1.3256 0.273399,2.102501 1.1884,2.102501c0.348709,0 0.756897,-0.112801 1.209,-0.351601l5.762711,-3.043899l5.763687,3.043899c0.452095,0.2388 0.861312,0.351601 1.209999,0.351601c0.915001,0 1.414001,-0.776901 1.1865,-2.102501l-1.100601,-6.446297zm-4.295898,-1.392601l0.653312,3.827095l-3.416999,-1.804595l-3.417,1.804595l0.653389,-3.826599l-2.787201,-2.728996l3.849701,-0.562004l1.701111,-3.463898l1.702186,3.463898l3.849602,0.562004l-2.788101,2.7285z"/>
 </g>
</svg>